{
  "accessors": [
    {
      "bufferView": 2,
      "componentType": 5126,
      "count": 23513,
      "max": [
        1.8582890033721924,
        3.9749178886413574,
        8.9824609756469727
      ],
      "min": [
        -1.9594670534133911,
        -6.3265738487243652,
        0.12202999740839005
      ],
      "type": "VEC3"
    },
    {
      "bufferView": 2,
      "byteOffset": 282156,
      "componentType": 5126,
      "count": 23513,
      "max": [
        0.99987727403640747,
        0.99993729591369629,
        0.99989509582519531
      ],
      "min": [
        -0.99999618530273438,
        -0.99977761507034302,
        -0.99999666213989258
      ],
      "type": "VEC3"
    },
    {
      "bufferView": 3,
      "componentType": 5126,
      "count": 23513,
      "max": [
        0.9999920129776001,
        0.99954009056091309,
        0.99998658895492554,
        1
      ],
      "min": [
        -0.99994748830795288,
        -0.999683678150177,
        -0.99999940395355225,
        -1
      ],
      "type": "VEC4"
    },
    {
      "bufferView": 1,
      "componentType": 5126,
      "count": 23513,
      "max": [
        0.99987500905990601,
        0.95277100801467896
      ],
      "min": [
        3.9999999899009708e-06,
        4.1999999666586518e-05
      ],
      "type": "VEC2"
    },
    {
      "bufferView": 0,
      "componentType": 5125,
      "count": 131325,
      "max": [
        23512
      ],
      "min": [
        0
      ],
      "type": "SCALAR"
    }
  ],
  "asset": {
    "extras": {
      "author": "thesidekick (https://sketchfab.com/thesidekick)",
      "license": "CC-BY-4.0 (http://creativecommons.org/licenses/by/4.0/)",
      "source": "https://sketchfab.com/3d-models/worn-vagabond-women-leather-boot-a77f8c86090042c1973db829e3fb8b1e",
      "title": "Worn Vagabond women Leather Boot"
    },
    "generator": "Sketchfab-7.57.0",
    "version": "2.0"
  },
  "bufferViews": [
    {
      "buffer": 0,
      "byteLength": 525300,
      "byteOffset": 0,
      "name": "floatBufferViews",
      "target": 34963
    },
    {
      "buffer": 0,
      "byteLength": 188104,
      "byteOffset": 525300,
      "byteStride": 8,
      "name": "floatBufferViews",
      "target": 34962
    },
    {
      "buffer": 0,
      "byteLength": 564312,
      "byteOffset": 713404,
      "byteStride": 12,
      "name": "floatBufferViews",
      "target": 34962
    },
    {
      "buffer": 0,
      "byteLength": 376208,
      "byteOffset": 1277716,
      "byteStride": 16,
      "name": "floatBufferViews",
      "target": 34962
    }
  ],
  "buffers": [
    {
      "byteLength": 1653924,
      "uri": "scene.bin"
    }
  ],
  "images": [
    {
      "uri": "textures/Worn_vagabond_leather_boot_women_baseColor.jpeg"
    },
    {
      "uri": "textures/Worn_vagabond_leather_boot_women_metallicRoughness.png"
    },
    {
      "uri": "textures/Worn_vagabond_leather_boot_women_normal.png"
    }
  ],
  "materials": [
    {
      "doubleSided": true,
      "name": "Worn_vagabond_leather_boot_women",
      "normalTexture": {
        "index": 2,
        "scale": 0.32291666666666669,
        "texCoord": 0
      },
      "occlusionTexture": {
        "index": 1,
        "strength": 1,
        "texCoord": 0
      },
      "pbrMetallicRoughness": {
        "baseColorFactor": [
          0.85018939393939397,
          0.85018939393939397,
          0.85018939393939397,
          1
        ],
        "baseColorTexture": {
          "index": 0,
          "texCoord": 0
        },
        "metallicFactor": 0,
        "metallicRoughnessTexture": {
          "index": 1,
          "texCoord": 0
        },
        "roughnessFactor": 0.55928030303030307
      }
    }
  ],
  "meshes": [
    {
      "primitives": [
        {
          "attributes": {
            "NORMAL": 1,
            "POSITION": 0,
            "TANGENT": 2,
            "TEXCOORD_0": 3
          },
          "indices": 4,
          "material": 0,
          "mode": 4
        }
      ]
    }
  ],
  "nodes": [
    {
      "children": [
        1
      ],
      "name": "RootNode (gltf orientation matrix)",
      "rotation": [
        -0.70710678118654746,
        -0,
        -0,
        0.70710678118654757
      ]
    },
    {
      "children": [
        2
      ],
      "name": "RootNode (model correction matrix)"
    },
    {
      "children": [
        3
      ],
      "name": "Worn_vagabond_leather_boot_women_SF.obj.cleaner.materialmerger.gles"
    },
    {
      "mesh": 0,
      "name": ""
    }
  ],
  "samplers": [
    {
      "magFilter": 9729,
      "minFilter": 9987,
      "wrapS": 10497,
      "wrapT": 10497
    }
  ],
  "scene": 0,
  "scenes": [
    {
      "name": "OSG_Scene",
      "nodes": [
        0
      ]
    }
  ],
  "textures": [
    {
      "sampler": 0,
      "source": 0
    },
    {
      "sampler": 0,
      "source": 1
    },
    {
      "sampler": 0,
      "source": 2
    }
  ]
}

